<svg xmlns="http://www.w3.org/2000/svg" width="112" height="51.5" viewBox="0 0 112 51.5"><defs><style>.a{fill:#fff;}</style></defs><g transform="translate(0 0.063)"><path class="a" d="M294.29,297.034a76.051,76.051,0,0,0,20.231-.164l.087,6.854h-6.44s-.169,10.906.076,15.694a61.028,61.028,0,0,1,.082,6.931s-6.691.583-8.67-.414c0,0,0-5.115.082-7.264,0,0,.829-12.144,0-14.947l-6.767.409a19.838,19.838,0,0,0,.545-4.046C293.532,300.087,293.215,296.87,294.29,297.034Z" transform="translate(-292.97 -275.926)"/><path class="a" d="M350.343,296c-8.136,0-14.723,6.936-14.723,15.481s6.609,15.486,14.723,15.486,14.75-6.931,14.75-15.486S358.49,296,350.343,296Zm0,23.208c-3.964,0-7.182-3.512-7.182-7.847s3.217-7.847,7.182-7.847,7.187,3.512,7.187,7.847-3.212,7.825-7.187,7.825Z" transform="translate(-312.363 -275.53)"/><path class="a" d="M473.34,325.911l-10.906-28.9c-.4-.943-.982-1.091-1.292-1.091a.9.9,0,0,0-.273.038,7.544,7.544,0,0,1-2.514.294c-1.407,0-2.8-.142-2.8-.142a4.312,4.312,0,0,0-.671-.06,1.39,1.39,0,0,0-.84.191.233.233,0,0,0-.087.109l-10.47,28.95a.507.507,0,0,0,0,.518c.18.294.742.638,3.555.638,2.181,0,4.6-.207,4.624-.207h.065c.731-.278,1.194-2.421,1.314-3.07a1.047,1.047,0,0,1,1.091-.96h8.18c.365,0,.905,1.418,1.167,2.726.365,1.276,1.036,1.407,1.145,1.418l8.507-.082a.24.24,0,0,0,.2-.371ZM460.553,314.5s-5.529,1.238-5.033-.491c0,0,2.067-7.269,2.808-8.092C458.328,305.937,460.809,312.95,460.553,314.5Z" transform="translate(-361.379 -275.494)"/><path class="a" d="M395.613,298.1s.087,5.529,0,7.6c0,0-.164,3.386.251,4.21l8.42,16.435s0,.5.66.5l6.282-.082a1.8,1.8,0,0,0,.491-.66s4.046-7.847,4.711-8.921c0,0,4.128-7.929,4.046-9.494l-.082-9.581s.082-.333-.584-.409a30.6,30.6,0,0,0-4.362-.087h-2.557a.878.878,0,0,0-.491.911v9.27l-4.362,9.575-4.3-8.588s0-4.21.169-6.026a27.344,27.344,0,0,0,.164-4.706s-2.394-.169-3.223-.327C400.816,297.686,395.532,296.775,395.613,298.1Z" transform="translate(-339.627 -276.158)"/><rect class="a" width="108.777" height="1.979" transform="translate(1.603 15.862)"/><path class="a" d="M316.049,265.078v-1.734h6.6v4.084a9.637,9.637,0,0,1-2.786,1.091,14.429,14.429,0,0,1-3.7.485,11.515,11.515,0,0,1-4.144-.682,5.551,5.551,0,0,1-2.661-1.941,4.656,4.656,0,0,1-.889-2.726,4.5,4.5,0,0,1,.992-2.863,6.234,6.234,0,0,1,2.906-1.919,10.993,10.993,0,0,1,3.626-.513,9.844,9.844,0,0,1,4.411.807,3.817,3.817,0,0,1,2.045,2.225l-3.043.387a2.388,2.388,0,0,0-1.205-1.2,4.907,4.907,0,0,0-2.208-.442,5.263,5.263,0,0,0-3.185.867,2.983,2.983,0,0,0-1.189,2.568,3.272,3.272,0,0,0,1.2,2.727,5.051,5.051,0,0,0,3.146.916,7.4,7.4,0,0,0,1.93-.256,7.748,7.748,0,0,0,1.636-.622v-1.309Z" transform="translate(-300.018 -258.41)"/><path class="a" d="M349,269.04V258.723h6.44a15.981,15.981,0,0,1,3.534.278,3.561,3.561,0,0,1,1.761.987,2.323,2.323,0,0,1-.343,3.544,5.944,5.944,0,0,1-3,.954,7.273,7.273,0,0,1,1.636.867,12.935,12.935,0,0,1,1.745,1.674l1.849,2.012h-3.659l-2.214-2.247a16.3,16.3,0,0,0-1.636-1.516,2.606,2.606,0,0,0-.916-.431,7.448,7.448,0,0,0-1.543-.115h-.622v4.308Zm3.059-5.955h2.268a17.444,17.444,0,0,0,2.727-.125,1.751,1.751,0,0,0,.856-.436,1.047,1.047,0,0,0,.311-.774,1.009,1.009,0,0,0-.409-.84,2.241,2.241,0,0,0-1.151-.4c-.251-.027-.992-.038-2.236-.038h-2.388Z" transform="translate(-318.447 -258.576)"/><path class="a" d="M386.34,258.73h3.086v5.6a8.446,8.446,0,0,0,.109,1.723,1.777,1.777,0,0,0,.938,1.014,4.428,4.428,0,0,0,2.023.382,4.222,4.222,0,0,0,1.963-.36,1.461,1.461,0,0,0,.8-.889,8.121,8.121,0,0,0,.136-1.756V258.73h3.059v5.42a9.406,9.406,0,0,1-.251,2.623,2.65,2.65,0,0,1-.911,1.292,5.011,5.011,0,0,1-1.789.84,10.9,10.9,0,0,1-2.912.316,11.926,11.926,0,0,1-3.272-.344,5.029,5.029,0,0,1-1.772-.883,2.727,2.727,0,0,1-.862-1.145,8.75,8.75,0,0,1-.3-2.617Z" transform="translate(-335.425 -258.584)"/><path class="a" d="M421,269.039V258.722h4.908a25.708,25.708,0,0,1,3.637.158,4.363,4.363,0,0,1,2.181,1.009,2.552,2.552,0,0,1,.883,2.007,2.514,2.514,0,0,1-.507,1.6,3.528,3.528,0,0,1-1.287,1.014,5.593,5.593,0,0,1-1.592.491,25.619,25.619,0,0,1-3.174.147h-2v3.893Zm3.059-8.572V263.4h1.679a11.4,11.4,0,0,0,2.421-.164,2.077,2.077,0,0,0,.949-.507,1.113,1.113,0,0,0-.136-1.729,2.47,2.47,0,0,0-1.227-.458,20.87,20.87,0,0,0-2.181-.071Z" transform="translate(-351.185 -258.575)"/><path class="a" d="M455.087,263.807a4.771,4.771,0,0,1,.693-2.65,5.453,5.453,0,0,1,1.412-1.412,6.54,6.54,0,0,1,1.958-.927,11.818,11.818,0,0,1,3.272-.409,9.147,9.147,0,0,1,5.355,1.412,4.842,4.842,0,0,1,0,7.841,9.018,9.018,0,0,1-5.339,1.412,9.363,9.363,0,0,1-5.377-1.4A4.477,4.477,0,0,1,455.087,263.807Zm3.152-.071a3.13,3.13,0,0,0,1.194,2.656,4.858,4.858,0,0,0,3.016.9,4.788,4.788,0,0,0,3-.894,3.174,3.174,0,0,0,1.178-2.694,3.135,3.135,0,0,0-1.145-2.645,5.709,5.709,0,0,0-6.086,0A3.136,3.136,0,0,0,458.239,263.736Z" transform="translate(-366.683 -258.437)"/></g></svg>